<svg viewBox="153.6 80.896 204.8 338.944" xmlns:xlink="http://www.w3.org/1999/xlink" xmlns="http://www.w3.org/2000/svg" style="max-height: 500px" width="204.8" height="338.944"><path d="M502.698 353.709C502.889 353.698 503.08 353.687 503.271 353.676C553.313 351.464 602.201 369.128 639.272 402.815C674.406 434.801 696.814 479.394 699.007 527.071C701.633 575.356 684.659 622.657 651.932 658.256C618.061 694.914 570.998 716.592 521.125 718.507C511.523 718.762 503.273 718.887 493.653 718C453.139 714.18 414.841 697.762 384.142 671.051C348.518 639.805 326.848 595.627 323.945 548.33C320.947 500.33 335.238 453.814 367.245 417.579C396.289 384.777 435.773 363.015 479.017 355.976C487.081 354.662 494.558 354.21 502.698 353.709ZM521.877 698.121C568.292 695.143 609.053 675.75 639.906 640.69C667.525 608.826 681.274 567.251 678.099 525.203C675.087 483.101 655.565 443.894 623.782 416.118C597.407 393.177 564.736 378.708 530.022 374.595C523.083 373.735 508.974 372.713 501.822 373.706C455.92 376.943 413.549 396.052 383.076 431.048C355.482 462.843 341.544 504.239 344.286 546.248C347.138 589.815 367.642 630.332 401.058 658.431C434.301 686.539 477.077 700.794 520.537 698.244C520.984 698.203 521.43 698.162 521.877 698.121Z" transform="scale(0.5 0.5)" fill="#AC1CE2"/><path d="M505.094 475.333C539.877 471.711 570.987 497.03 574.503 531.824C578.02 566.617 552.606 597.65 517.802 601.061C483.147 604.457 452.276 579.176 448.775 544.531C445.273 509.887 470.461 478.94 505.094 475.333ZM515.774 558.499C526.988 556.324 534.346 545.509 532.252 534.28C530.157 523.051 519.396 515.615 508.152 517.628C496.793 519.662 489.264 530.558 491.38 541.902C493.495 553.246 504.446 560.696 515.774 558.499Z" transform="scale(0.5 0.5)" fill="#AC1CE2"/><path d="M457.884 401.665C460.255 401.39 461.081 401.66 462.002 403.718C461.699 407.708 446.182 416.98 442.244 419.616C421.007 433.833 404.61 449.343 390.508 470.788C385.384 478.58 379.625 488.349 374.217 495.717C373.085 495.88 373.155 495.78 371.976 495.62C371.261 494.955 370.456 494.173 370.528 493.063C373.222 451.502 418.638 407.86 457.884 401.665Z" transform="scale(0.5 0.5)" fill="#AC1CE2"/><path d="M465.299 426.162C465.727 426.095 467.029 426.16 467.52 426.171C469.128 427.104 468.603 426.453 469.214 428.139C468.266 432.304 453.467 441.261 449.301 444.357C434.712 455.101 422.162 468.368 412.243 483.531C408.33 489.402 404.061 496.989 399.937 502.438L399.488 503.025C398.178 503.677 398.283 503.683 396.837 503.525C395.934 502.723 395.307 502.065 395.36 500.705C396.712 465.834 432.109 430.928 465.299 426.162Z" transform="scale(0.5 0.5)" fill="#AC1CE2"/><path d="M473.093 450.216C475.414 450.268 476.91 450.029 478.314 452.007C478.038 456.546 469.053 461.205 465.094 463.84C452.913 472.01 442.668 482.748 435.079 495.3C431.966 500.438 429.278 506.023 426.184 511.297C424.041 512.035 424.029 511.972 422.458 511.209C421.238 509.612 420.807 508.134 420.724 506.097C419.955 487.254 432.101 471.129 446.484 460.267C454.581 454.152 463.044 450.991 473.093 450.216Z" transform="scale(0.5 0.5)" fill="#AC1CE2"/><path d="M614.001 605.266C618.346 605.956 628.698 615.388 632.72 618.026C638.321 621.699 622.591 635.748 619.361 638.654C618.236 639.093 618.39 638.997 617.164 639.172C612.822 637.671 601.902 625.214 599.261 621.23C603.443 616.003 609.286 610.196 614.001 605.266Z" transform="scale(0.5 0.5)" fill="#AC1CE2"/><path d="M631.205 572.344C634.494 572.572 653.893 578.154 655.288 580.422C655.583 585.462 649.336 598.533 646.343 602.789C642.585 603.894 626.039 594.428 622.436 591.945C623.65 588.094 629.021 575.584 631.205 572.344Z" transform="scale(0.5 0.5)" fill="#AC1CE2"/><path d="M653.76 497.048L654.992 497.055C658.557 499.474 661.991 517.29 659.83 521.147C656.56 523.269 644.443 523.788 639.502 524.655L638.856 524.772C637.783 524.618 637.398 524.487 636.348 524.199C633.497 521.584 634.207 517.788 633.184 514.172C632.506 511.776 630.913 505.958 631.717 503.709C634.93 501.477 649.07 498.259 653.76 497.048Z" transform="scale(0.5 0.5)" fill="#AC1CE2"/><path d="M636.565 537.554C641.086 537.472 657.782 536.801 661.096 537.906C663.637 541.758 661.627 557.792 659.671 561.912C655.88 562.543 639.075 560.194 635.49 558.504C633.913 556.392 635.078 539.932 636.565 537.554Z" transform="scale(0.5 0.5)" fill="#AC1CE2"/><path d="M511.468 175.363C515.258 175.848 529.126 188.292 532.379 191.424C546.261 204.788 557.556 222.739 560.415 242.041C561.301 248.019 561.202 254.092 561.234 260.171C542.831 283.728 528.265 310.895 521.172 340.097C520.54 329.994 521.06 316.849 520.817 306.337C520.247 281.718 517.949 261.265 512.2 237.432C509.902 240.8 506.725 265.254 506.038 270.219C502.85 293.24 503.06 316.731 502.95 339.9C496.687 318.963 489.139 298.431 477.159 280.084C472.552 273.029 467.64 266.85 463.047 259.972C462.425 252.62 462.852 245.218 464.314 237.986C469.762 210.982 489.074 190.087 511.468 175.363Z" transform="scale(0.5 0.5)" fill="#88D71C"/><path d="M628.586 249.79C639.391 248.617 651.901 249.702 662.637 250.724C658.929 285.658 643.881 321.872 610.47 337.64C597.941 343.553 583.645 345.305 569.935 345.144C577.515 329.288 594.48 307.972 606.12 294.689L606.86 293.805L606.376 293.715C579.194 309.185 567.244 320.729 546.486 343.565C543.64 343.589 540.723 343.351 537.875 343.176C549.933 291.394 570.162 255.092 628.586 249.79Z" transform="scale(0.5 0.5)" fill="#88D71C"/><path d="M379.344 249.22C408.735 247.322 441.096 257.752 459.803 281.315C475.046 300.515 480.112 320.336 486.054 343.299L478.362 343.84C461.177 324.46 448.004 311.93 425.892 298.058C422.17 295.918 418.476 293.729 414.811 291.492C430.049 307.582 443.09 325.618 453.595 345.13C395.436 346.554 367.905 303.546 361.355 250.815C367.334 250.104 373.333 249.572 379.344 249.22Z" transform="scale(0.5 0.5)" fill="#88D71C"/><path d="M448.639 722.689C453.897 723.452 467.652 728.273 475.375 729.728C512.289 736.684 540.58 733.83 575.744 722.437C572.431 748.68 551.805 762.926 527.376 767.873C525.007 768.319 522.634 768.746 520.258 769.155C523.594 770.225 528.144 771.273 531.61 772.179C522.568 785.321 517.888 796.627 515.183 812.315C515.011 813.314 514.274 814.143 513.475 814.721C512.539 814.849 510.347 815.016 510.066 814.328C508.415 810.277 506.777 802.196 505.508 798.189C504.387 794.625 503.047 791.135 501.495 787.737C497.895 779.892 490.543 768.354 482.731 764.435C464.217 755.145 451.537 744.703 448.639 722.689Z" transform="scale(0.5 0.5)" fill="#88D71C"/></svg>